<?xml version="1.0" encoding="UTF-8" standalone="no"?>
<svg
   xmlns:dc="http://purl.org/dc/elements/1.1/"
   xmlns:cc="http://creativecommons.org/ns#"
   xmlns:rdf="http://www.w3.org/1999/02/22-rdf-syntax-ns#"
   xmlns:svg="http://www.w3.org/2000/svg"
   xmlns="http://www.w3.org/2000/svg"
   id="svg8"
   version="1.1"
   viewBox="0 0 200 200"
   height="200mm"
   width="200mm">
  <title
     id="title5960">spam</title>
  <defs
     id="defs2">
    <marker
       style="overflow:visible"
       id="marker5183"
       refX="0.0"
       refY="0.0"
       orient="auto">
      <path
         transform="scale(0.8)"
         style="fill-rule:evenodd;stroke:#ffcc00;stroke-width:1pt;stroke-opacity:1;fill:#000000;fill-opacity:1"
         d="M 5.77,0.0 L -2.88,5.0 L -2.88,-5.0 L 5.77,0.0 z "
         id="path5181" />
    </marker>
    <marker
       style="overflow:visible;"
       id="Arrow2Lend"
       refX="0.0"
       refY="0.0"
       orient="auto">
      <path
         transform="scale(1.1) rotate(180) translate(1,0)"
         d="M 8.7185878,4.0337352 L -2.2072895,0.016013256 L 8.7185884,-4.0017078 C 6.9730900,-1.6296469 6.9831476,1.6157441 8.7185878,4.0337352 z "
         style="fill-rule:evenodd;stroke-width:0.625;stroke-linejoin:round;stroke:#ffcc00;stroke-opacity:1;fill:#000000;fill-opacity:0"
         id="path4570" />
    </marker>
    <marker
       style="overflow:visible"
       id="TriangleOutL"
       refX="0.0"
       refY="0.0"
       orient="auto">
      <path
         transform="scale(0.8)"
         style="fill-rule:evenodd;stroke:#ffcc00;stroke-width:1pt;stroke-opacity:1;fill:#000000;fill-opacity:0"
         d="M 5.77,0.0 L -2.88,5.0 L -2.88,-5.0 L 5.77,0.0 z "
         id="path4691" />
    </marker>
    <marker
       style="overflow:visible"
       id="TriangleInL"
       refX="0.0"
       refY="0.0"
       orient="auto">
      <path
         transform="scale(-0.8)"
         style="fill-rule:evenodd;stroke:#ffcc00;stroke-width:1pt;stroke-opacity:1;fill:#000000;fill-opacity:1"
         d="M 5.77,0.0 L -2.88,5.0 L -2.88,-5.0 L 5.77,0.0 z "
         id="path4682" />
    </marker>
    <marker
       style="overflow:visible;"
       id="Arrow1Lend"
       refX="0.0"
       refY="0.0"
       orient="auto">
      <path
         transform="scale(0.8) rotate(180) translate(12.5,0)"
         style="fill-rule:evenodd;stroke:#ffcc00;stroke-width:1pt;stroke-opacity:1;fill:#000000;fill-opacity:1"
         d="M 0.0,0.0 L 5.0,-5.0 L -12.5,0.0 L 5.0,5.0 L 0.0,0.0 z "
         id="path4552" />
    </marker>
    <marker
       style="overflow:visible;"
       id="Arrow2Mend"
       refX="0.0"
       refY="0.0"
       orient="auto">
      <path
         transform="scale(0.6) rotate(180) translate(0,0)"
         d="M 8.7185878,4.0337352 L -2.2072895,0.016013256 L 8.7185884,-4.0017078 C 6.9730900,-1.6296469 6.9831476,1.6157441 8.7185878,4.0337352 z "
         style="fill-rule:evenodd;stroke-width:0.625;stroke-linejoin:round;stroke:#ffcc00;stroke-opacity:1;fill:#000000;fill-opacity:0"
         id="path4576" />
    </marker>
    <marker
       style="overflow:visible"
       id="Arrow1Lstart"
       refX="0.0"
       refY="0.0"
       orient="auto">
      <path
         transform="scale(0.8) translate(12.5,0)"
         style="fill-rule:evenodd;stroke:#ffcc00;stroke-width:1pt;stroke-opacity:1;fill:#000000;fill-opacity:1"
         d="M 0.0,0.0 L 5.0,-5.0 L -12.5,0.0 L 5.0,5.0 L 0.0,0.0 z "
         id="path4549" />
    </marker>
    <marker
       style="overflow:visible"
       id="Arrow1Mstart"
       refX="0.0"
       refY="0.0"
       orient="auto">
      <path
         transform="scale(0.4) translate(10,0)"
         style="fill-rule:evenodd;stroke:#ffcc00;stroke-width:1pt;stroke-opacity:1;fill:#000000;fill-opacity:1"
         d="M 0.0,0.0 L 5.0,-5.0 L -12.5,0.0 L 5.0,5.0 L 0.0,0.0 z "
         id="path4555" />
    </marker>
  </defs>
  <metadata
     id="metadata5">
    <rdf:RDF>
      <cc:Work
         rdf:about="">
        <dc:format>image/svg+xml</dc:format>
        <dc:type
           rdf:resource="http://purl.org/dc/dcmitype/StillImage" />
        <dc:title>spam</dc:title>
      </cc:Work>
    </rdf:RDF>
  </metadata>
  <g
     style="opacity:1"
     transform="translate(0,-97)"
     id="layer1" />
  <g
     id="layer2">
    <path
       transform="matrix(1.1547005,0,0,1.1250001,-15.55385,-121.55732)"
       d="m 100.54167,111.79166 73.32348,42.33334 0,84.66666 -73.32348,42.33333 -73.323481,-42.33333 2e-6,-84.66667 z"
       id="path3729"
       style="opacity:1;fill:#000000;stroke:#ffcc00;stroke-width:3.56500006;stroke-linecap:round;stroke-linejoin:miter;stroke-miterlimit:4;stroke-dasharray:none;stroke-opacity:1;paint-order:fill markers stroke;fill-opacity:1" />
  </g>
  <g
     id="layer3">
    <path
       transform="scale(-1)"
       d="m -48.384289,-64.697039 a 63.499996,63.499996 0 0 1 -69.979861,26.465202 63.499996,63.499996 0 0 1 -46.60325,-58.529694 63.499996,63.499996 0 0 1 41.46821,-62.273389 63.499996,63.499996 0 0 1 71.973311,20.43113"
       id="path4547"
       style="fill:#000000;fill-opacity:1;stroke:#ffcc00;stroke-width:2.86500001;stroke-linecap:round;stroke-linejoin:miter;stroke-miterlimit:4;stroke-dasharray:none;stroke-opacity:1;marker-end:url(#marker5183);paint-order:normal" />
  </g>
  <g
     id="layer4">
    <text
       transform="scale(1.008128,0.99193754)"
       id="text5548"
       y="117.02639"
       x="18.713505"
       style="font-style:normal;font-weight:normal;font-size:51.59026337px;line-height:9.25;font-family:sans-serif;letter-spacing:0px;word-spacing:0px;fill:#9fbf00;fill-opacity:1;stroke:none;stroke-width:0.60457337"
       xml:space="preserve"><tspan
         style="font-style:italic;font-variant:normal;font-weight:normal;font-stretch:normal;font-size:51.59026337px;line-height:9.25;font-family:sans-serif;-inkscape-font-specification:'sans-serif Italic';letter-spacing:4.73894596px;fill:#9fbf00;fill-opacity:1;stroke-width:0.60457337"
         y="117.02639"
         x="18.713505"
         id="tspan5546">SP</tspan></text>
    <g
       transform="matrix(0.87882906,0,0,1.3653777,33.990594,-36.986285)"
       id="g5575">
      <path
         style="fill:none;stroke:#9fbf00;stroke-width:4.06495619;stroke-linecap:butt;stroke-linejoin:miter;stroke-miterlimit:4;stroke-dasharray:none;stroke-opacity:1"
         d="m 108.27563,99.458331 c 0,0 31.74999,15.874989 31.74999,-5e-6 0,-15.874993 -31.74999,5e-6 -31.74999,5e-6 z"
         id="path5550" />
      <path
         style="fill:none;stroke:#9fbf00;stroke-width:4.06500006;stroke-linecap:butt;stroke-linejoin:miter;stroke-miterlimit:4;stroke-dasharray:none;stroke-opacity:1"
         d="m 105.83333,99.458334 c 0,0 -31.74999,15.874986 -31.74999,-10e-6 0,-15.87499 31.74999,10e-6 31.74999,10e-6 z"
         id="path5550-9" />
    </g>
    <path
       id="path5591"
       d="m 71.437499,120.625 c 0,0 26.458333,37.04167 74.083331,0"
       style="fill:none;stroke:#9fbf00;stroke-width:0;stroke-linecap:butt;stroke-linejoin:miter;stroke-opacity:1;stroke-miterlimit:4;stroke-dasharray:none" />
  </g>
</svg>
